<svg width="189" height="65" viewBox="0 0 189 65" fill="none" xmlns="http://www.w3.org/2000/svg">
<path d="M88.1774 64.1469H74.9144L69.9244 49.2426C68.0203 43.1364 66.9041 39.5909 66.3131 36.5049H65.7879C65.2626 39.8535 64.1464 43.1364 62.1767 49.2426L57.1866 64.1469H43.9236L30.3979 18.5146L44.5145 21.8632L49.5046 41.4949C50.0298 44.2526 50.8834 48.1264 51.4087 51.4749H51.9339C52.1966 48.4547 53.3128 44.2526 54.1663 41.4949L59.6816 24.6208H72.9446L78.46 41.4949C79.3135 44.2526 80.3641 48.1264 80.6923 51.4749H81.2176C81.4803 48.4547 82.3338 44.2526 83.1217 41.4949L87.8491 21.8632L101.703 18.5146L100.587 21.8632L88.1774 64.1469Z" fill="#100217"/>
<path d="M106.494 18.5146L118.641 21.8632V64.1469H106.494V18.5146Z" fill="#100217"/>
<path d="M128.623 8.66563C128.623 12.5395 125.865 15.2971 121.991 15.2971C118.117 15.2971 115.097 12.5395 115.097 8.66563C115.097 4.79181 117.789 2.03418 121.991 2.03418C125.865 2.03418 128.623 4.79181 128.623 8.66563Z" fill="#6941C6"/>
<path d="M170.647 32.9594C169.794 32.4341 167.298 32.0402 165.657 32.0402C162.046 32.0402 158.763 33.419 156.005 35.3887V63.8843H143.858V18.5146L156.005 21.8632V26.2623C159.879 22.3885 163.753 20.747 167.889 20.747C168.743 20.747 170.122 21.0097 170.647 21.2723V32.9594Z" fill="#100217"/>
<path d="M188.307 64.1478H176.16V3.34856L188.307 0V64.1478Z" fill="#100217"/>
<path d="M13.0004 31.8431C13.0004 29.6107 14.6418 28.4945 18.2531 28.4945C22.1269 28.4945 26.526 29.3481 29.2837 30.9895L25.4098 18.5145C23.1774 18.2519 21.0107 17.9893 18.5157 17.9893C6.89414 17.9893 0.262634 24.3581 0.262634 32.3683C0.262634 47.601 20.1572 45.6313 20.1572 50.8839C20.1572 53.1163 18.5157 54.4951 14.6418 54.4951C9.38916 54.4951 3.61122 52.591 0.525268 50.3586L0 61.3892C3.34858 63.6215 9.12653 65.0003 14.9045 65.0003C27.6422 65.0003 32.8949 58.3689 32.8949 50.3586C32.8949 35.126 13.0004 37.0957 13.0004 31.8431Z" fill="#100217"/>
<path d="M137.293 64.1469H125.146V21.8632L137.293 18.5146V64.1469Z" fill="#100217"/>
</svg>
