<svg width="76" height="27" viewBox="0 0 76 27" fill="none" xmlns="http://www.w3.org/2000/svg">
<path d="M35.2992 25.6798H29.9898L27.9921 19.7132C27.2299 17.2688 26.7831 15.8494 26.5465 14.614H26.3362C26.126 15.9545 25.6791 17.2688 24.8906 19.7132L22.893 25.6798H17.5835L12.1689 7.41211L17.8201 8.75261L19.8177 16.6116C20.028 17.7156 20.3697 19.2664 20.58 20.6069H20.7902C20.8954 19.3978 21.3422 17.7156 21.6839 16.6116L23.8918 9.85656H29.2012L31.4091 16.6116C31.7508 17.7156 32.1714 19.2664 32.3028 20.6069H32.5131C32.6182 19.3978 32.9599 17.7156 33.2753 16.6116L35.1678 8.75261L40.7138 7.41211L40.267 8.75261L35.2992 25.6798Z" fill="#0C111D"/>
<path d="M42.6318 7.41211L47.4944 8.75261V25.6798H42.6318V7.41211Z" fill="#0C111D"/>
<path d="M51.4903 3.46918C51.4903 5.01996 50.3863 6.1239 48.8355 6.1239C47.2848 6.1239 46.0757 5.01996 46.0757 3.46918C46.0757 1.9184 47.1533 0.814453 48.8355 0.814453C50.3863 0.814453 51.4903 1.9184 51.4903 3.46918Z" fill="#6941C6"/>
<path d="M68.3134 13.1947C67.9717 12.9844 66.9729 12.8267 66.3158 12.8267C64.8701 12.8267 63.5559 13.3787 62.452 14.1672V25.5746H57.5894V7.41211L62.452 8.75261V10.5137C64.0027 8.96289 65.5535 8.30578 67.2094 8.30578C67.5511 8.30578 68.1031 8.41092 68.3134 8.51605V13.1947Z" fill="#0C111D"/>
<path d="M75.3826 25.6799H70.52V1.3405L75.3826 0V25.6799Z" fill="#0C111D"/>
<path d="M5.20431 12.7482C5.20431 11.8545 5.86142 11.4077 7.30706 11.4077C8.85784 11.4077 10.6189 11.7493 11.7228 12.4065L10.1721 7.41242C9.27839 7.30729 8.411 7.20215 7.4122 7.20215C2.75986 7.20215 0.105138 9.75173 0.105138 12.9584C0.105138 19.0564 8.06931 18.2679 8.06931 20.3706C8.06931 21.2643 7.4122 21.8163 5.86142 21.8163C3.75867 21.8163 1.44564 21.054 0.210275 20.1604L0 24.5761C1.3405 25.4698 3.65353 26.0218 5.96656 26.0218C11.0657 26.0218 13.1685 23.367 13.1685 20.1604C13.1685 14.0624 5.20431 14.8509 5.20431 12.7482Z" fill="#0C111D"/>
<path d="M54.9612 25.6798H50.0986V8.75261L54.9612 7.41211V25.6798Z" fill="#0C111D"/>
</svg>
